/* XPM */
static char *menu[] = {
/* columns rows colors chars-per-pixel */
"179 50 21 1 ",
"  c black",
". c gray6",
"X c #101010",
"o c #131313",
"O c #222222",
"+ c #343434",
"@ c #393939",
"# c gray25",
"$ c #4E4E4E",
"% c gray33",
"& c #5D5D5D",
"* c gray40",
"= c gray43",
"- c #767676",
"; c gray49",
": c #808080",
"> c #898989",
", c #929292",
"< c #9D9D9D",
"1 c #A7A7A7",
"2 c gray66",
/* pixels */
"........XXXXXXXXXXXXXXXXX.XXXXXXXXXXXXXXXXXXXXXXX.XXXXXXXXXXXX......XXXXX.XXXXXXXXXXXX...XXX.........XXXXXXX..XXXXXXXXXXXXXXXXXXX..XX.XXXXX.XX....XXXXXXXXXXX.X..XXXXX..........XXX",
".11::::::::>>:::>:::>::::::::;;::>::::>:::::>:::::>:::>::>>:::;;;:::::::::::>:::::::;;;;:>:;;;;;;;-;::::::::;;:::::::>:>::>::::::;;:;;:::::::;;;;:::::>::;:::::;:::::;;;;;;;;;;;::X",
".11::::::>:::::>>:>:::::::>:::::::::::>::::>:::::::::>:>::>>:::;:::>:::;::::>:>::::>;;-;::::;;;;-;;::::;:>::::::>::>:>>::::::>::::;;;:::;;::;;--;::;::::;;;;:;;;::::;-;;;;;;;;;;::X",
".11;:::::>>>:>>:>:>:>::::::::::::::::::>>::::::>:::>::::::::::;;:::::::;:::::::>:>>>::;;;;::;;;;;;:::::;:::>::>>:::::>:>:>:::::::;;;;:::;;::;-=;::;;;;;--;;;;;-;;;::;;;;;;;;;;;;::X",
".11::::>:>::::::::::>:::::::::::::::::::>:::>:::>:::::::::::::;;;;;;::;;:::;;;:::::::;;;:;;;;--;::::::::;;::::>:>:::::>:>::::::::;;-;:::::;;;--;:;;;;-;;::::::;:::::::;;;;;:;;;;::X",
".11>>:>:>:::;::::>::>:::::::>:::;;;:::::>:>>>:>:::::::::::>::;;;-;;:;:;;;;::;;:::::::;;:::;;-;;;::::::::;;:::::::::;::::::;;::;;::;;::::::;--;--;;--;;;;:;::::;:::::;;;;:::;;;;:::X",
".11:>::>>::::::::>>>::::;;:::::>:;;;:;::::>>:>>::>:>:;::::::::;;;;;;:;;-;;::::::;::::;-;::::;;;;:>::;;::;;:;::;:::;;:;;::;;::;;::::::;::;-;--;--;;=*=-;;:;-;;;;:::::;-;;:::;;:;:::X",
".12:>>>::::::>:>>::::>>:;;::::::;;;;;;;::>:::>:::::%%%%&%%%%%%$$$%%$%$$%%;;%%%%%%%%%%$$%%;:&%%%$$%$$$$$%$=;%%&%%%:;%%%%%%;>:::;;;::::;;;;--;;;-;;;;----;;;;-;;:::::;--;;:::;::;;;;X",
".11:>:>>::::::::::::::>:;:>:::::::::::;:>:::::;::>>                      ;;              -;              =-      --      ;;:>:;-;:;:;;;--;:::;;:;:;-;;;;--=-;;-;;;---;:;;;;;;;;-;;X",
".11:>::::>:::::>::::;:::;:>:>>:>>::::;:::::::::::::                      ;:              --              -;      =-      -;::::;::;:;;;--:>::>:::;:;:;;--==-;;;;;;---;;---;;;;;;::X",
"X21:>::::::::;::::::;;::::>::>>:>::::::::::::::::::                      ;;              ;;              -;      --      -;;;;:;;;--;-;;-:>:>:::::;::;;:;;-;;::;--;-----;:::::;:::.",
".22>:::::::::::::::::::::::::::>::::::::::::::>::::                      --              ;;              -;      --      ;;:;;;;;;----;;;;;:::;;;;:::::::::;::;;;;----;:;;:::::;:;.",
".11;::::;;;;;::>>::::::::::;::::::::;;;;;:::>>:::::                      =-              -;              -;      =-      ;>::;---;;--------;;;--;;;:::;;::::;;;;;:;;;;:>:::::>::::.",
".11:;;::;;;;:>>>::>>:::;:::;::::::::;;;:::::>>:>:>>      -;      --      -;      -;      -;      -:      -:      -;      ;::::--;;;--;;-;;-;;;;-;;;;:;;;;:::;;::::::::::>:>:::;;::.",
".<1:::::;;;-:>>>:::>>:;;;-;;:::::>:;;;:::>>:>:>::>:      ;:      -;      -:      -;      -;      -;      ;;      -;      ;::::;;::::;::;;;;;;;:;;:::::;;;::>:>:>:>:>:>>>>:::;;;;;:.",
".1<;;:::::;-::::::::::;;;;:::::::::::;:>::>>:>::>::      -;      ;:      --      ;;      ;:      ;;      -;      ;;      -:::;;;:::::;;-;;;;;;:;:::;;;;:::>:>:::>>>::>::>::::;;;::.",
".<1:;::;:::::>>:>>:::::;;;:::::::::>:>>::>>::>:>:::      -;      ;:      -;      -;      ;:      ;;      -:      -;      ;;;;;;;::>::;;;::;;;;;;;;;;;::>:>>::::>>>>>>>:>::::::::::.",
".11:;;:::::::::>::::;;;;;;:::>:>>::::>:>:>>::>:::::      -;      ;:      -;      -;      ;;      ;;      ;:      -;      ------;:>>>::::::;;;;;;;;;;;::::>>>>::::>::::::::::::::::.",
".11:::;::::::>::::::::;;;::::>:::::::>>:::>::::::::      -:      ;:      *;      -;      -;      -:      ;:      -;      -----;::>:::::;::;---;;;:::::>:>>>>>>:::>:;;;::;;:;::;;;-.",
".12::::::::>>:>:::>:::::;::::::>>:>:>>::>>:>:::::::      -;      ;:      =-      -;      -;      -;      ;:      -;      ==;;-;::>:::::;;;-==;;-;:::::::>:::>>::>::;;;;;-;;----;;;.",
".11::>:::>:>:>::::::::::::::::>>>>:>>::::::>:;::::>      -;      ;:      --      =;      -;      -;      ;:      --      =-;;:;:::::::;;;::;::;-;;;;:::::>:>:>>>:::;-;;-;;-=-;::::.",
".12::>>>>::>>:>::::::::::::>>:>>:>::>>>>:>>:::;::::      -:      ;:      =;      ;:      =-      -:      --      --      --;;;::::;;;::;;:::::;;;;::>::>:::::>:>:::::;;;;----;::::.",
".12:>>>>>::>>::>>>:::::::::>>::>::>::>::::>::;:::::      ;:      ;>      -;      ;:      =-      ;:      ;;      --      -;;;:::::>::::::::::;;;;:;>>::>:>::::::>::::;----;;;;::::.",
".12>::::::>::::::::::::>>:::>>::>>:::::::>:::;:;:::      ;:      ;:      --      -:      =-      :>      ;>      -;      -::;:::::::>:::>::>:>;;:::::;;:::::>:>:::;;:;;;;;;;;;::::.",
".11:>:::::>:::::::::;;:::::>::>>>::;::::>:::;;;;:::      ;:      ;:      ;;      -;      --      ;:      ;:      -;      -::::::::::::;::::::;;;;>:::;;;:::>>>:;:;;;:::;;---:::;::X",
".12:::::::>::>>:::::;>::::>:::::>:;;;:;:::::;;:;;::      -:      ;:      ;:      ;:     .;;      -:      -;      =-      -::>:::>:>>:::::>::::;;-;--;;;;::::::;;;:;;:::;;;--::;;::.",
".11;:::::>>::>::::;;;:::>>:::::>:::-;;:::::;;;;;:::      ;:      ;:      -;      ;:    @-;;      =:      -;      =-      ;:>>>:::>:>:;:;:>>::;:;;;;----;;::;:;;;;:;;;;--;;--;;:;:;.",
".1<;:::>:>:::::::::::::>:::::::::::;;;::::;::;;;;::      ;:      ::      ;:      -;  .&:;;;      -:      -;      -;      ;::::::::::::;;:>::::::;:;-;::;;:;-;;;;::;;:;;;;:;;;;::;;.",
".11::::::::>>:::::>:::>:;;-;::::;;;::::::::::::;;;:      ;;      ;:      -:      -; +-;;-;;      -:      ;;      -:      -:::::>:::;:;-;>:>::::::::;;;::;;::::::::::::;;;-;;--:;--.",
".11>:::::::>>>::::>:>:::;;;;::::;;;;::::>::>:;;;;::      ;;      ;:      ;:      --%;:;---;      -:      ;;      ;:      ;>:;:>>::::;;;::>>>>::::;;;;;;;;;;:>:::::>::;;;;;;--;::;;.",
".12:>:::;;:::::>>::>>::;--;;;::::::::;:::>>:;-;;-;;      -:      ;;      ;;      -;;;;;;;;;      -:      ::      ;:      ;>>>:::::::::;:>>>::;;::;;:::::;-;::::::>::::;;;;;;-;:::;X",
".12>::>::;;:;;>>:::>:::;;-;;;:;;;::;:::::::;-;;;-;:      -:      ;;      ;:      $%%%%%$%-:      -:      ;>      %%      ;>>:>::;;::::::::::;;::;;::::::;;;:::::::::;;:::;;:;::;-;.",
".11:::::::;;;:>>>:>::::;---;;;;;;;;;;::;::;-;;:;-;;      -;      ;;      -;              -:      -:      ;:              ;::::;:;;;;;;;;;;;:::::::::::>:;--;:;:::;;;:;;;;;;;;;;;--.",
".<1:::::::;;;:::::::::;;;;;;;;-;--;;;;:;;;;;;:;;;--      ;;      -;      -;              =;      =;      -;              ;:::;;:;;;:;-;;;;:::;::::::::::;--;::;;:;;;;-;--=-;;----;.",
".11:::;;::::;;-;;;;::;;;;;;;-;-----;;;::;;;::;::;;-      ;:      --      ;:              =-      --      -;              -;;::::;;;--;-;::::;;;;::::;;:;;;;;::;;::;;-;;-=-;;--;--;.",
".11:;;;;:::;==;;;;;;::;;;;;;;;;--;;;;;;;;;;;:::;;;;      ;;      -;      -:              =:      ;;      ;:              ;;-;:::;;--;-=;::::;;;;:;;;;--;;;;;::;-::;;;;;---;;;-;--;.",
".11:;;;;----=;::::;;--;;;;::::;;;;;:;;;;;::::::;;;;      -;      -;      =-              =;XXXXXX;:XXXXXX;:              -;--*===-;::--;:;:::::;;;;-;-==;:;;;;;:::;:;;;;;;:;;;;;;:X",
".<1:;;::;--;::::::::-;;::::::::::;;:;:::::::::;;;--      -;    @=;:    @==---;;;;;;;;;--:::::;:::>>>:>:>:::::;::::::;;--;----*=**=-;;-;:;;:;:;;;;-;;;:-=;:;-:;::::;;;;;;;::;;;::::X",
".11;;;;:;;:>>:::::;:;;:>:::::::;;;;;::::::::;;;;---      --  @-;;;-  @=;;---;;;;;;;;;;;:::::>::::>::>:>::::::::;:;::;--;;-=--;-=*&&=-=-:;;;;;:;;;;;;::;;;;;;:;-;:>:;;-;::;;:-;:::;X",
".1<;;:::;-::::::;::::;:::::::>:;;;:::;:>:;;;:;;-=-;      --@=;;;;;-@=:;:;;;;;;;;:;;-;;:::>:>>:>:>:>:::>:>:>:::;:;;;;;;;;;--;;---====-;;;;;:;;::;;;;;;;;;;;;::;;;::::;-;:;;::;;::::.",
".<<;;:::;-;;;;;-;::::::::::::>:::>::;;:::;;;;;----;      --;;;;::::::::;;;;;;;;;:;;;-::::>:>::::::>::::::::>:;::;;-;;;;;-;;;--;;-;;-;;;;;::::;;;;;;-;::;:::;;::::::::;::;;;;;;;;::X",
".11::;:;;;;;;-;;;::::::::::::::::::::;;;;;;;;;;;;;;    O*;;;;;;::;:::;:;;;;--;;;;;::;:>>>>:::>>::>::;;;;;::::::;---;;---;--=-;;-;;;;;;;;--;;;;;--;;;::::;;:::;::::::::;;;;;-;;;;::X",
".11;;-;;;--;;:;;:::::;;:::;:::::::::::;;--;;--;;;;:   %;;;::;;;::;;;;::;;;---;;;;;;;:::::::::::::>::;;;;;-;;;;--==-----;;------;;;;;:::-;;::;;;;::;:::::;;;;:;:::>:;:;;;;;-;;;;:::X",
".<<;-;;;;-=;:;;;:;:::;;;:::::::::::>:;;:;;;;;--;;;; #-;;:;;;;;;:::;;:;;;-;;;;;;;;;;;>::>:::::;::::>:;;;;;--;;;;---=-=-;:;;;---;-;;;::;;;;;::;;::::::::::;:;;;:::::::;-;;;;;;;;:;::X",
".<<----;;--;;;;:;;;:::::;;;;:::::>::::;;::;;;;;::::*;;;;;;;;-;;;;;-;;;;;::;;;-;;;;;;::::::::-;:::>;-;;;-;;;;;;;;;---:::;;;;;;;;;:;;:;:;;;;:::::::>::::::;;-;;;;:;;::;-;:;::;;;::::X",
".<<;;-=;--;;:::;;-;;::::;;-;;:::::::;--;:;;;;;:::::;-----;;;--;:;;-;::;;::;--;;;;;;;;:::>:>;--;;::;=-;;-;;;;-;-;-;;;:::;;;-;;;;;;;:::::;;;;::::;;:;;:>::::------;;::;;--;;;:;;;;>:X",
".11;:;-;;-;;;;:;;---;:;:;;;;;:;;:;::;-;;:;;;;;:::::-=--;-;;;;;;;;;;:::::;;;;;;;;;;;;;;:>:::;;--;:-----;;;;;;;---;;::::::;;:;::::;;::::;;;:::;;;;;-;;:::;:;--**-;-;;;;;--;-;;;---::X",
".,>=**&**&*&&&****&*******&*********&&****&****=*&*&&*&*&&&****&*****=****&&***&*=*****=**=**&&&=&&&&&&**&*******======*******==*==**=****=*&&******=***&*&&&%&&&&&&&****&&**&&&&*X",
".,,*=******&**&****&***&********=***&************&&&**&&&**&&&******=*******=*********=****=**&&&*&&*&&*&&&*****=*=*=********&******=**&***&&&*&&*&**&**&&&&&&&&&*&&&**=*&&&*&&&&&.",
"..................................................................................................X.............X..............................................XX.............XX..."
};
