/* XPM */
static char *t3[] = {
/* columns rows colors chars-per-pixel */
"128 128 20 1 ",
"  c black",
". c #202020",
"X c #2C2C2C",
"o c #373737",
"O c #000640",
"+ c #00084C",
"@ c #010A58",
"# c #010D64",
"$ c #011070",
"% c #01137C",
"& c gray33",
"* c #011688",
"= c #021A98",
"- c #021DA4",
"; c #0220B0",
": c #0222BC",
"> c #0225C8",
", c #0228D4",
"< c #032BE0",
"1 c #4040FC",
/* pixels */
"oo$$%%%%%%%%%%%%%%%%%%%%%%%%%%%%%%%%%%%%%%$$oooo********************************************************oooo$$%%%%%%%%%%%%%%$$XX",
"oo$$%%%%%%%%%%%%%%%%%%%%%%%%%%%%%%%%%%%%%%$$oooo********************************************************oooo$$%%%%%%%%%%%%%%$$XX",
"..------------------------------------------....::::::::::::::::::::::::::::::::::::::::::::::::::::::::....;;;;;;;;;;;;;;;;;;..",
"..------------------------------------------....::::::::::::::::::::::::::::::::::::::::::::::::::::::::....;;;;;;;;;;;;;;;;;;..",
"  ------**--%%----==%%====%%====%%--%%$$$$@@  ..::--::;;%%--::==$$$$==**----**$$**--::--**==--::::--==$$  ..;;::--==--;;;;==%%  ",
"  ------**--%%----==%%====%%====%%--%%$$$$@@  ..::--::;;%%--::==$$$$==**----**$$**--::--**==--::::--==$$  ..;;::--==--;;;;==%%  ",
"  --==%%**======%%%%--==--##====%%$$%%%%$$##  ..::::--======$$==@@$$@@@@%%----##$$$$##$$$$@@$$****$$##$$  ..;;;;----%%==----@@  ",
"  --==%%**======%%%%--==--##====%%$$%%%%$$##  ..::::--======$$==@@$$@@@@%%----##$$$$##$$$$@@$$****$$##$$  ..;;;;----%%==----@@  ",
"  --**--$$>>>>==%%%%%%==****%%##@@%%$$@@@@##  ..                                                          ..;;--;;::::;;--%%%%  ",
"  --**--$$>>>>==%%%%%%==****%%##@@%%$$@@@@##  ..                                                          ..;;--;;::::;;--%%%%  ",
"  --**%%-->>>>##%%%%%%--======**$$$$%%@@@@OO  ..--------------------------------------......................;;::--;;--%%%%##@@  ",
"  --**%%-->>>>##%%%%%%--======**$$$$%%@@@@OO  ..--------------------------------------......................;;::--;;--%%%%##@@  ",
"  --====;;;;------==------====$$$$##@@##$$##  ..--::::::;;--====::====;;====;;::::----  ..--------====##....;;====--%%****####  ",
"  --====;;;;------==------====$$$$##@@##$$##  ..--::::::;;--====::====;;====;;::::----  ..--------====##....;;====--%%****####  ",
"  ----==--;;;;--==%%##----==****%%####@@OOOO  ..--;;::<<>>;;--::--======;;;;------==--  ..--====**==%%##  ..;;====--$$******##  ",
"  ----==--;;;;--==%%##----==****%%####@@OOOO  ..--;;::<<>>;;--::--======;;;;------==--  ..--====**==%%##  ..;;====--$$******##  ",
"  --==%%==----**==%%==$$$$******$$%%%%##@@OO  ..--;;>>::>>==;;----::====--%%--%%==--%%  ..--======%%%%##  ..;;::--==----****OO  ",
"  --==%%==----**==%%==$$$$******$$%%%%##@@OO  ..--;;>>::>>==;;----::====--%%--%%==--%%  ..--======%%%%##  ..;;::--==----****OO  ",
"  --******--%%%%%%----$$@@####$$##%%%%%%@@OO  ..--;;;;;;======;;--------==**##%%%%%%##  ..----==%%%%@@@@  ..::%%%%==----==@@OO  ",
"  --******--%%%%%%----$$@@####$$##%%%%%%@@OO  ..--;;;;;;======;;--------==**##%%%%%%##  ..----==%%%%@@@@  ..::%%%%==----==@@OO  ",
"  ==%%**--****$$==----$$$$##@@######%%%%@@OO  ..--::;;;;;;====;;::::----####**%%%%##@@  ..----==%%--%%@@  ..::%%::--%%====@@OO  ",
"  ==%%**--****$$==----$$$$##@@######%%%%@@OO  ..--::;;;;;;====;;::::----####**%%%%##@@  ..----==%%--%%@@  ..::%%::--%%====@@OO  ",
"  ==**==%%%%--**##%%@@%%##@@##%%OO@@OOOO##OO  ..--::----;;;;;;;;::;;;;--####$$--####OO  ..--%%**==%%@@@@  ..::::%%%%####%%%%OO  ",
"  ==**==%%%%--**##%%@@%%##@@##%%OO@@OOOO##OO  ..--::----;;;;;;;;::;;;;--####$$--####OO  ..--%%**==%%@@@@  ..::::%%%%####%%%%OO  ",
"  ==%%==%%##****%%##%%##%%##OO$$$$OOOOOO##OO  ..--;;----==::====--;;;;--====%%%%@@@@##  ..--******$$$$##  ..::%%$$##%%##%%%%OO  ",
"  ==%%==%%##****%%##%%##%%##OO$$$$OOOOOO##OO  ..--;;----==::====--;;;;--====%%%%@@@@##  ..--******$$$$##  ..::%%$$##%%##%%%%OO  ",
"  ====%%%%%%$$##@@@@##%%##$$##OOOO$$OO##@@OO  ..--;;<<>>****====**%%%%%%**==**%%####OO  ..----****$$$$##  ..::%%%%$$@@@@@@@@OO  ",
"  ====%%%%%%$$##@@@@##%%##$$##OOOO$$OO##@@OO  ..--;;<<>>****====**%%%%%%**==**%%####OO  ..----****$$$$##  ..::%%%%$$@@@@@@@@OO  ",
"  ==%%==####$$##%%##OOOOOOOOOOOOOOOOOOOOOOOO  ..--::>>>>******----%%****%%**$$%%##@@OO  ..--%%==--@@@@@@  ..                    ",
"  ==%%==####$$##%%##OOOOOOOOOOOOOOOOOOOOOOOO  ..--::>>>>******----%%****%%**$$%%##@@OO  ..--%%==--@@@@@@  ..                    ",
"                                              ..--::----==****------****==####%%##@@OO  ..------==--@@##  ......................",
"                                              ..--::----==****------****==####%%##@@OO  ..------==--@@##  ......................",
"--::;;--;;----------;;--------  ;;;;;;----====  --;;==--**==--------%%====%%%%@@@@OOOO  ..==--==--==$$##  ..--------  ::::::::::",
"--::;;--;;----------;;--------  ;;;;;;----====  --;;==--**==--------%%====%%%%@@@@OOOO  ..==--==--==$$##  ..--------  ::::::::::",
"::;;--==--::;;--**----%%--==%%  ;;;;==::::%%::  --------::--==------**##$$%%OOOO##@@OO  ..====%%$$%%$$@@  ..--;;**%%  ::::--;;::",
"::;;--==--::;;--**----%%--==%%  ;;;;==::::%%::  --------::--==------**##$$%%OOOO##@@OO  ..====%%$$%%$$@@  ..--;;**%%  ::::--;;::",
"::;;====**----**%%====%%%%====  ;;::::;;==%%%%  --;;==--::--**%%****##%%%%$$OOOO##OOOO  ..====@@@@@@##OO  ..--;;;;%%  ::--;;;;;;",
"::;;====**----**%%====%%%%====  ;;::::;;==%%%%  --;;==--::--**%%****##%%%%$$OOOO##OOOO  ..====@@@@@@##OO  ..--;;;;%%  ::--;;;;;;",
";;--==;;;;====%%%%%%==%%%%%%%%  ;;::;;;;====##  --;;------**--%%%%##$$$$@@@@@@####@@OO  ..==%%@@##@@@@OO  ..--**%%@@  ::::::;;;;",
";;--==;;;;====%%%%%%==%%%%%%%%  ;;::;;;;====##  --;;------**--%%%%##$$$$@@@@@@####@@OO  ..==%%@@##@@@@OO  ..--**%%@@  ::::::;;;;",
"--**==;;::;;%%%%====%%==@@%%%%  ;;::==%%====##  ------========%%##@@####@@####@@OOOOOO  ..==%%##@@@@OOOO  ..--@@##@@  ::::;;;;;;",
"--**==;;::;;%%%%====%%==@@%%%%  ;;::==%%====##  ------========%%##@@####@@####@@OOOOOO  ..==%%##@@@@OOOO  ..--@@##@@  ::::;;;;;;",
"----**==;;,,%%==%%%%####$$%%%%  ;;==::%%%%%%##                                          ..                          ..::::----==",
"----**==;;,,%%==%%%%####$$%%%%  ;;==::%%%%%%##                                          ..                          ..::::----==",
";;**%%**==--==%%%%==##$$%%@@@@  ;;====##%%%%@@  ..................................................;;;;;;;;;;;;;;;;....::----====",
";;**%%**==--==%%%%==##$$%%@@@@  ;;====##%%%%@@  ..................................................;;;;;;;;;;;;;;;;....::----====",
";;--**==%%==%%====%%$$%%##%%@@  ;;::==**##@@##  ..;;;;;;;;;;;;;;;;;;;;;;;;;;;;;;;;;;;;;;;;==--....;;>>;;>>------==  ..::;;======",
";;--**==%%==%%====%%$$%%##%%@@  ;;::==**##@@##  ..;;;;;;;;;;;;;;;;;;;;;;;;;;;;;;;;;;;;;;;;==--....;;>>;;>>------==  ..::;;======",
";;;;==**;;========%%%%$$@@@@@@  --::%%****##@@  ..;;::;;--::::::;;::--;;--::;;%%--::::::%%--@@  ..;;>>;;>>>>--==**  ..::::======",
";;;;==**;;========%%%%$$@@@@@@  --::%%****##@@  ..;;::;;--::::::;;::--;;--::;;%%--::::::%%--@@  ..;;>>;;>>>>--==**  ..::::======",
";;--**%%**;;;;##%%==****$$@@##  --%%##$$$$@@##  ..;;::--;;>><<<<::,,<<--::----::::--------%%@@  ..;;>>>>>>>>--**%%  ..::;;::----",
";;--**%%**;;;;##%%==****$$@@##  --%%##$$$$@@##  ..;;::--;;>><<<<::,,<<--::----::::--------%%@@  ..;;>>>>>>>>--**%%  ..::;;::----",
"--==%%**--;;;;--==%%****$$@@##  ==%%@@@@@@@@##  ..;;;;--::,,,,<<::<<,,,,;;%%--%%%%--%%%%--@@@@  ..;;;;-->>--**--##  ..::::::----",
"--==%%**--;;;;--==%%****$$@@##  ==%%@@@@@@@@##  ..;;;;--::,,,,<<::<<,,,,;;%%--%%%%--%%%%--@@@@  ..;;;;-->>--**--##  ..::::::----",
";;==;;====--;;--##%%$$$$$$@@@@                  ..;;::::;;;;>>>>----,,,,----%%%%%%$$--%%%%@@@@  ..;;>>--------**##  ..::::::;;;;",
";;==;;====--;;--##%%$$$$$$@@@@                  ..;;::::;;;;>>>>----,,,,----%%%%%%$$--%%%%@@@@  ..;;>>--------**##  ..::::::;;;;",
"--****----==----##$$@@##@@OOOO  ..................;;;;::;;;;;;------::------%%****%%%%@@@@@@##  ..;;>>>>----**%%$$  ..::----::;;",
"--****----==----##$$@@##@@OOOO  ..................;;;;::;;;;;;------::------%%****%%%%@@@@@@##  ..;;>>>>----**%%$$  ..::----::;;",
"--==**------==%%$$##@@####@@@@  ..;;;;;;;;----....;;----::;;****--::;;%%----%%******$$$$$$@@@@  ..;;>>>>====----@@  ..::----;;;;",
"--==**------==%%$$##@@####@@@@  ..;;;;;;;;----....;;----::;;****--::;;%%----%%******$$$$$$@@@@  ..;;>>>>====----@@  ..::----;;;;",
"==**==**----%%####@@@@@@##OO##  ..;;;;**--==**  ..;;::;;::;;****------%%------$$****@@$$$$$$OO  ..;;;;>>======--@@  ..::::====%%",
"==**==**----%%####@@@@@@##OO##  ..;;;;**--==**  ..;;::;;::;;****------%%------$$****@@$$$$$$OO  ..;;;;>>======--@@  ..::::====%%",
"==****%%****%%####$$%%%%##OOOO  ..;;----==**==  ..;;::::--;;;;;;==--%%%%%%----$$@@##@@##$$$$OO  ..;;;;--**;;----##  ..::****====",
"==****%%****%%####$$%%%%##OOOO  ..;;----==**==  ..;;::::--;;;;;;==--%%%%%%----$$@@##@@##$$$$OO  ..;;;;--**;;----##  ..::****====",
"==**--==$$%%%%$$##$$%%%%##@@OO  ..;;--==**$$##  ..;;::--%%--;;;;----%%$$%%##$$$$$$@@OOOO@@OOOO  ..;;;;>>**;;;;==##  ..::****%%%%",
"==**--==$$%%%%$$##$$%%%%##@@OO  ..;;--==**$$##  ..;;::--%%--;;;;----%%$$%%##$$$$$$@@OOOO@@OOOO  ..;;;;>>**;;;;==##  ..::****%%%%",
"==--==****%%####@@++++$$##@@OO  ..;;;;**;;**@@  ..;;----::%%----==%%$$%%%%####$$$$##OOOO####OO  ..;;-->>--**====@@  ..::::%%%%%%",
"==--==****%%####@@++++$$##@@OO  ..;;;;**;;**@@  ..;;----::%%----==%%$$%%%%####$$$$##OOOO####OO  ..;;-->>--**====@@  ..::::%%%%%%",
"%%====**%%%%%%%%@@++++@@@@##OO  ..;;;;;;$$$$##  ..;;%%::%%----%%%%$$##%%%%%%####@@@@######++OO  ..;;>>----==@@$$##  ..::----====",
"%%====**%%%%%%%%@@++++@@@@##OO  ..;;;;;;$$$$##  ..;;%%::%%----%%%%$$##%%%%%%####@@@@######++OO  ..;;>>----==@@$$##  ..::----====",
"%%****%%$$%%%%%%@@@@##@@@@@@@@  ..;;;;;;--@@@@  ..;;--::%%----$$####@@%%%%%%##@@@@@@@@++++++OO  ..;;>>--==%%==$$@@  ..::----==**",
"%%****%%$$%%%%%%@@@@##@@@@@@@@  ..;;;;;;--@@@@  ..;;--::%%----$$####@@%%%%%%##@@@@@@@@++++++OO  ..;;>>--==%%==$$@@  ..::----==**",
"%%**##$$%%##%%%%@@##@@OO@@##@@  ..;;====@@**##  ..;;--%%----%%@@@@@@@@########@@OOOOOOOOOOOOOO  ..;;>>--%%====%%##  ..::==----%%",
"%%**##$$%%##%%%%@@##@@OO@@##@@  ..;;====@@**##  ..;;--%%----%%@@@@@@@@########@@OOOOOOOOOOOOOO  ..;;>>--%%====%%##  ..::==----%%",
"%%==%%##%%##$$@@##OOOO@@OOOOOO  ..;;====;;@@##  ..                                              ..--;;--%%##%%%%##  ..::==****%%",
"%%==%%##%%##$$@@##OOOO@@OOOOOO  ..;;====;;@@##  ..                                              ..--;;--%%##%%%%##  ..::==****%%",
"%%**==**$$%%$$@@@@@@OO##OO@@OO  ..;;;;**;;**@@  ..................................................--;;;;--%%@@##OO  ..::::****%%",
"%%**==**$$%%$$@@@@@@OO##OO@@OO  ..;;;;**;;**@@  ..................................................--;;;;--%%@@##OO  ..::::****%%",
"%%==**%%##$$%%$$OOOOOOOOOOOOOO  ..;;;;****@@##  ..--------------------------------------------....--;;--::--%%##OO  ..::====%%**",
"%%==**%%##$$%%$$OOOOOOOOOOOOOO  ..;;;;****@@##  ..--------------------------------------------....--;;--::--%%##OO  ..::====%%**",
"                                ..;;;;%%%%@@@@  ..--::::::::::::;;--------------==**%%::==--%%  ..-->>----::**@@OO  ..          ",
"                                ..;;;;%%%%@@@@  ..--::::::::::::;;--------------==**%%::==--%%  ..-->>----::**@@OO  ..          ",
"..........@@@@$$$$******%%$$##....--;;%%%%%%@@  ..;;::>>>>::----;;;;>>::====----==%%**%%**==%%  ..--------****@@OO  ..**==****  ",
"..........@@@@$$$$******%%$$##....--;;%%%%%%@@  ..;;::>>>>::----;;;;>>::====----==%%**%%**==%%  ..--------****@@OO  ..**==****  ",
"..==--;;::::::::::::::::::::::....----**%%%%##  ..;;::>>>>>>;;;;;;;;::::%%%%%%%%------====%%##  ..-->>--%%$$@@@@OO  ..====%%%%  ",
"..==--;;::::::::::::::::::::::....----**%%%%##  ..;;::>>>>>>;;;;;;;;::::%%%%%%%%------====%%##  ..-->>--%%$$@@@@OO  ..====%%%%  ",
"..--::::::::::;;--;;::------::  ..----==@@####  ..;;::::::::,,,,;;;;;;%%%%%%%%%%%%==%%%%$$==##  ..--;;**$$##@@$$OO  ..==%%$$$$  ",
"..--::::::::::;;--;;::------::  ..----==@@####  ..;;::::::::,,,,;;;;;;%%%%%%%%%%%%==%%%%$$==##  ..--;;**$$##@@$$OO  ..==%%$$$$  ",
"..--::;;;;,,,,;;::::::==--::::  ..--==**@@@@@@  ..;;::::;;::,,,,,,%%--==%%%%$$$$$$**%%%%%%%%##  ..----$$##$$@@@@OO  ..==$$%%@@  ",
"..--::;;;;,,,,;;::::::==--::::  ..--==**@@@@@@  ..;;::::;;::,,,,,,%%--==%%%%$$$$$$**%%%%%%%%##  ..----$$##$$@@@@OO  ..==$$%%@@  ",
"..::::::;;,,,,::====--::::==;;  ..              ..--;;::;;::::,,,,::----==%%$$$$####@@%%%%%%##  ..**%%%%@@@@@@##OO  ..**%%$$@@  ",
"..::::::;;,,,,::====--::::==;;  ..              ..--;;::;;::::,,,,::----==%%$$$$####@@%%%%%%##  ..**%%%%@@@@@@##OO  ..**%%$$@@  ",
"..::--;;--;;;;;;======::--****  ..................----;;>>====::--::--------%%%%####%%##@@++++  ..                  ..**$$@@##  ",
"..::--;;--;;;;;;======::--****  ..................----;;>>====::--::--------%%%%####%%##@@++++  ..                  ..**$$@@##  ",
"..::::;;==**;;;;--====--::::--  ..::::;;----==....---->>>>======;;------%%%%==**$$####@@@@OOOO  ..............................  ",
"..::::;;==**;;;;--====--::::--  ..::::;;----==....---->>>>======;;------%%%%==**$$####@@@@OOOO  ..............................  ",
"..::::==--::;;**--;;;;;;%%----  ..::%%::**==**  ..--::::::;;====::::::--%%%%%%%%######@@@@OOOO  ..;;;;;;;;::::::::::::::::::::  ",
"..::::==--::;;**--;;;;;;%%----  ..::%%::**==**  ..--::::::;;====::::::--%%%%%%%%######@@@@OOOO  ..;;;;;;;;::::::::::::::::::::  ",
"..::::::::--**::**;;%%%%--**--  ..::--;;;;==%%  ..--;;----;;;;;;::::::::--%%**$$@@######$$@@++  ..;;;;----;;;;;;;;--**::----%%  ",
"..::::::::--**::**;;%%%%--**--  ..::--;;;;==%%  ..--;;----;;;;;;::::::::--%%**$$@@######$$@@++  ..;;;;----;;;;;;;;--**::----%%  ",
"..::--::==----::;;==%%++%%----  ..::::%%--%%$$  ..--::------==--::::::::------@@@@@@@@##$$$$##  ..;;--;;,,,,;;;;;;==------==%%  ",
"..::--::==----::;;==%%++%%----  ..::::%%--%%$$  ..--::------==--::::::::------@@@@@@@@##$$$$##  ..;;--;;,,,,;;;;;;==------==%%  ",
"..::;;====::<<::--**--%%%%----  ..::;;----%%--  ..--::::----::****::::::------$$@@@@##@@++++++  ..;;::::,,>>>>;;;;****--==%%##  ",
"..::;;====::<<::--**--%%%%----  ..::;;----%%--  ..--::::----::****::::::------$$@@@@##@@++++++  ..;;::::,,>>>>;;;;****--==%%##  ",
"..::--::--<<11<<====--==**%%**  ..::;;--%%--$$  ..----::====%%%%%%**------%%%%%%####@@@@@@OOOO  ..;;==::==>>>>;;;;----%%%%%%@@  ",
"..::--::--<<11<<====--==**%%**  ..::;;--%%--$$  ..----::====%%%%%%**------%%%%%%####@@@@@@OOOO  ..;;==::==>>>>;;;;----%%%%%%@@  ",
"..::;;::;;::<<::--%%----++++##  ..::--;;;;%%##  ..----::--****%%%%%%**%%**@@@@====$$$$@@++OOOO  ..;;::;;======----%%%%%%%%@@##  ",
"..::;;::;;::<<::--%%----++++##  ..::--;;;;%%##  ..----::--****%%%%%%**%%**@@@@====$$$$@@++OOOO  ..;;::;;======----%%%%%%%%@@##  ",
"..::--::;;;;;;******%%$$++++##  ..::::;;==**##  ..--==::::==::%%%%**%%%%**%%@@====**$$$$##@@##  ..;;;;--======--%%$$##%%@@@@##  ",
"..::--::;;;;;;******%%$$++++##  ..::::;;==**##  ..--==::::==::%%%%**%%%%**%%@@====**$$$$##@@##  ..;;;;--======--%%$$##%%@@@@##  ",
"..--::;;;;--%%%%==--====%%####  ..::;;--****%%  ..--::==--::--**%%$$$$****@@@@%%====%%$$@@@@OO  ..;;;;==--====--%%$$##$$%%@@@@  ",
"..--::;;;;--%%%%==--====%%####  ..::;;--****%%  ..--::==--::--**%%$$$$****@@@@%%====%%$$@@@@OO  ..;;;;==--====--%%$$##$$%%@@@@  ",
"..::--::;;****;;%%----==$$%%@@  ..::--::%%%%%%  ..--::------==**----$$$$@@$$@@@@%%%%%%##@@@@OO  ..;;;;::;;**;;;;==%%##====@@OO  ",
"..::--::;;****;;%%----==$$%%@@  ..::--::%%%%%%  ..--::------==**----$$$$@@$$@@@@%%%%%%##@@@@OO  ..;;;;::;;**;;;;==%%##====@@OO  ",
"..::--::--==**%%##**----==$$##  ..::::--######  ..------====%%**------$$##$$$$@@++++++##OOOOOO  ..::::;;**--;;;;;;==%%====%%OO  ",
"..::--::--==**%%##**----==$$##  ..::::--######  ..------====%%**------$$##$$$$@@++++++##OOOOOO  ..::::;;**--;;;;;;==%%====%%OO  ",
"..;;--******--##++##**====$$$$  ..::;;--%%$$@@  ..--;;--====::--%%----@@@@$$$$##@@OOOO@@OOOOOO  ..::;;--**----;;;;==%%%%%%%%OO  ",
"..;;--******--##++##**====$$$$  ..::;;--%%$$@@  ..--;;--====::--%%----@@@@$$$$##@@OOOO@@OOOOOO  ..::;;--**----;;;;==%%%%%%%%OO  ",
"..;;--$$##**##--%%%%==@@##@@@@  ..;;--######@@  ..--;;::%%::::--@@######@@@@++++++OOOO++@@OOOO  ..::;;--::----%%**$$$$%%%%@@OO  ",
"..;;--$$##**##--%%%%==@@##@@@@  ..;;--######@@  ..--;;::%%::::--@@######@@@@++++++OOOO++@@OOOO  ..::;;--::----%%**$$$$%%%%@@OO  ",
"..----****##**@@##@@##$$##$$##  ..;;--**$$####  ..----;;::--%%==@@######@@@@OOOO$$$$##OO++OO@@  ..::::::==--%%%%$$%%%%$$##OO##  ",
"..----****##**@@##@@##$$##$$##  ..;;--**$$####  ..----;;::--%%==@@######@@@@OOOO$$$$##OO++OO@@  ..::::::==--%%%%$$%%%%$$##OO##  ",
"..--==%%%%%%%%%%$$$$$$$$%%%%%%....--**%%%%%%%%....----==--==%%%%%%%%%%%%$$##@@@@%%%%%%%%@@@@$$....::----%%==--%%%%%%%%%%$$$$%%  ",
"..--==%%%%%%%%%%$$$$$$$$%%%%%%....--**%%%%%%%%....----==--==%%%%%%%%%%%%$$##@@@@%%%%%%%%@@@@$$....::----%%==--%%%%%%%%%%$$$$%%  ",
"oo******%%%%%%%%%%%%%%%%%%%%%%oooo****%%%%%%%%oooo-->>**********%%%%%%%%%%%%%%%%%%%%%%%%%%%%%%oooo::****%%%%%%%%%%%%%%%%%%%%%%..",
"oo******%%%%%%%%%%%%%%%%%%%%%%oooo****%%%%%%%%oooo-->>**********%%%%%%%%%%%%%%%%%%%%%%%%%%%%%%oooo::****%%%%%%%%%%%%%%%%%%%%%%..",
"&&&&&&&&&&&&&&&&&&&&&&&&&&&&&&&&&&&&&&&&&&&&&&&&&&&&&&&&&&&&&&&&&&&&&&&&&&&&&&&&&&&&&&&&&&&&&&&&&&&&&&&&&&&&&&&&&&&&&&&&&&&&&&oo",
"&&&&&&&&&&&&&&&&&&&&&&&&&&&&&&&&&&&&&&&&&&&&&&&&&&&&&&&&&&&&&&&&&&&&&&&&&&&&&&&&&&&&&&&&&&&&&&&&&&&&&&&&&&&&&&&&&&&&&&&&&&&&&&oo"
};
