/* XPM */
static char *t4[] = {
/* columns rows colors chars-per-pixel */
"128 128 20 1 ",
"  c #382C14",
". c #373737",
"X c #403018",
"o c #473818",
"O c #543C1D",
"+ c #5C401F",
"@ c #6C4824",
"# c #744C28",
"$ c #400940",
"% c #480B48",
"& c #500D50",
"* c #581058",
"= c #6B1670",
"- c #484848",
"; c gray33",
": c #646464",
"> c #80512C",
", c #841D84",
"< c #9C239C",
"1 c #B32AB4",
/* pixels */
"======$$$$$$$$$$**==,,**==$$$$$$$$$$$$$$============**$$$$$$$$$$$$$$$$$$**==,,,,==****$$$$$$$$$$$$$$$$$$$$$$$$$$****************",
"======$$$$$$$$$$**==,,**==$$$$$$$$$$$$$$============**$$$$$$$$$$$$$$$$$$**==,,,,==****$$$$$$$$$$$$$$$$$$$$$$$$$$****************",
"++,,,,==$$$$$$**==,,====****$$$$$$$$$$==,,<<@@@@@@++==**$$$$$$$$$$$$&&**==,,,,,,,,==,,==$$$$$$$$$$$$$$$$$$******==,,,,@@@@@@@@@@",
"++,,,,==$$$$$$**==,,====****$$$$$$$$$$==,,<<@@@@@@++==**$$$$$$$$$$$$&&**==,,,,,,,,==,,==$$$$$$$$$$$$$$$$$$******==,,,,@@@@@@@@@@",
"@@++,,,,,,==$$**====**======**$$$$&&**,,<<@@@@++++++++****&&$$$$&&&&**&&==,,,,,,==,,====**$$$$$$$$$$$$$$******==,,,,@@@@@@@@@@@@",
"@@++,,,,,,==$$**====**======**$$$$&&**,,<<@@@@++++++++****&&$$$$&&&&**&&==,,,,,,==,,====**$$$$$$$$$$$$$$******==,,,,@@@@@@@@@@@@",
"++++++,,==**********====****$$%%&&&&**,,<<@@++,,====++==**&&&&&&****&&**==,,==,,====******&&&&%%&&&&%%&&&&****==,,@@@@@@@@OOOO**",
"++++++,,==**********====****$$%%&&&&**,,<<@@++,,====++==**&&&&&&****&&**==,,==,,====******&&&&%%&&&&%%&&&&****==,,@@@@@@@@OOOO**",
",,++oo==,,==************&&%%%%&&&&****==,,,,==**==,,@@==&&**++++++,,==****==,,==****++++@@++++++OOOOoooo&&&&&&==,,@@@@@@XX**OO==",
",,++oo==,,==************&&%%%%&&&&****==,,,,==**==,,@@==&&**++++++,,==****==,,==****++++@@++++++OOOOoooo&&&&&&==,,@@@@@@XX**OO==",
",,++oo,,,,====**====,,,,,,,,,,====******==,,==,,,,==OO&&**++@@@@@@++,,==****==oooo++@@@@@@@@@@++++++oo++oo&&&&==,,==@@++XX==OO,,",
",,++oo,,,,====**====,,,,,,,,,,====******==,,==,,,,==OO&&**++@@@@@@++,,==****==oooo++@@@@@@@@@@++++++oo++oo&&&&==,,==@@++XX==OO,,",
"==,,++==,,==,,==,,,,,,,,@@====,,,,====****==**,,====XX**++@@@@OOOO++,,==**XXoo@@@@##@@@@@@++OOOOXXOOXXXX++oo&&**==,,@@++XX,,OO==",
"==,,++==,,==,,==,,,,,,,,@@====,,,,====****==**,,====XX**++@@@@OOOO++,,==**XXoo@@@@##@@@@@@++OOOOXXOOXXXX++oo&&**==,,@@++XX,,OO==",
",,,,++,,======,,++##,,@@++==**======,,==********==**oo**@@++OO****OO==**XXOO@@##########@@ooOOoo$$OO****++XXoo&&**,,@@++XX,,OO**",
",,,,++,,======,,++##,,@@++==**======,,==********==**oo**@@++OO****OO==**XXOO@@##########@@ooOOoo$$OO****++XXoo&&**,,@@++XX,,OO**",
"==,,++==**==,,++####@@++OO==********====**==****====++==++++**,,==oo,,==XX@@####>>>>####@@oo$$oo**OO====OO**oo&&&&==++OOXX==OO&&",
"==,,++==**==,,++####@@++OO==********====**==****====++==++++**,,==oo,,==XX@@####>>>>####@@oo$$oo**OO====OO**oo&&&&==++OOXX==OO&&",
"**==++**==,,,,####@@++++OO==****==**********========OO**++++==,,,,XX==XX@@OOoo>>>>####@@++XX**XX**OO,,,,OO==oo**&&**++OOXX,,OO&&",
"**==++**==,,,,####@@++++OO==****==**********========OO**++++==,,,,XX==XX@@OOoo>>>>####@@++XX**XX**OO,,,,OO==oo**&&**++OOXX,,OO&&",
"****XX====,,<<##@@++++OOoo==**====++++++OOoo******==oo&&oo**,,====XX&&XXOO@@==>>##@@@@++OOXX******,,,,OOOO==ooXX**&&**OOXX==**&&",
"****XX====,,<<##@@++++OOoo==**====++++++OOoo******==oo&&oo**,,====XX&&XXOO@@==>>##@@@@++OOXX******,,,,OOOO==ooXX**&&**OOXX==**&&",
"****XX==,,,,<<##++++oooooo==**==++@@@@@@@@++==********&&oo==,,**==XX%%XXOOoo==>>@@@@++OOOOOOXX,,**,,OOOOOOOOooXX==**&&OOXX&&**&&",
"****XX==,,,,<<##++++oooooo==**==++@@@@@@@@++==********&&oo==,,**==XX%%XXOOoo==>>@@@@++OOOOOOXX,,**,,OOOOOOOOooXX==**&&OOXX&&**&&",
"****XX==,,<<<<==++ooXX==XX**==**@@@@++==++@@,,==**&&%%%%XX&&&&&&&&%%%%**OOoo,,@@@@++OO**==OOOOXX,,,,OOooooOOooXX====**OOXX&&&&%%",
"****XX==,,<<<<==++ooXX==XX**==**@@@@++==++@@,,==**&&%%%%XX&&&&&&&&%%%%**OOoo,,@@@@++OO**==OOOOXX,,,,OOooooOOooXX====**OOXX&&&&%%",
"****XX==<<,,@@@@@@++XX&&XX&&&&++@@++====,,++,,==&&$$$$%%&&&&**&&&&&&**&&OOoo,,@@++OO**==,,==OOXX++@@ooXXXX,,ooXX==,,**&&&&&&%%%%",
"****XX==<<,,@@@@@@++XX&&XX&&&&++@@++====,,++,,==&&$$$$%%&&&&**&&&&&&**&&OOoo,,@@++OO**==,,==OOXX++@@ooXXXX,,ooXX==,,**&&&&&&%%%%",
"******==,,@@@@++========  %%&&++@@++**,,==++,,==&&%%%%&&****==,,,,==&&&&oooo,,@@**OO==,,,,,,@@++@@OOXX======ooXX==,,==**&&&&%%%%",
"******==,,@@@@++========  %%&&++@@++**,,==++,,==&&%%%%&&****==,,,,==&&&&oooo,,@@**OO==,,,,,,@@++@@OOXX======ooXX==,,==**&&&&%%%%",
"******==,,@@++==,,<<<<,,  $$&&++@@++**,,**OO==**%%**oooooo**========&&%%oo**,,@@,,OO**ooOO@@@@@@OOXX==,,==**==ooXX====&&%%%%%%%%",
"******==,,@@++==,,<<<<,,  $$&&++@@++**,,**OO==**%%**oooooo**========&&%%oo**,,@@,,OO**ooOO@@@@@@OOXX==,,==**==ooXX====&&%%%%%%%%",
"******==,,@@==,,<<,,====  $$&&@@,,OO**==**oo&&&&&&++@@@@++++oo**==**%%%%oo**,,@@,,OOoo@@@@@@@@@@@@OOXX====**,,ooooXX==&&%%%%%%%%",
"******==,,@@==,,<<,,====  $$&&@@,,OO**==**oo&&&&&&++@@@@++++oo**==**%%%%oo**,,@@,,OOoo@@@@@@@@@@@@OOXX====**,,ooooXX==&&%%%%%%%%",
"******====@@==<<,,****$$  $$&&@@,,oo**==**XX&&**@@>>>>>>>>@@++****==%%%%XX==,,**,,OO@@@@@@@@OOOOOOOOXX==,,======ooXXXX&&%%%%&&**",
"******====@@==<<,,****$$  $$&&@@,,oo**==**XX&&**@@>>>>>>>>@@++****==%%%%XX==,,**,,OO@@@@@@@@OOOOOOOOXX==,,======ooXXXX&&%%%%&&**",
"******====@@==<<**==,,**  %%&&,,,,==,,==**&&&&,,>>@@++++++++@@OO****&&%%XX====****OO@@@@OOOO  OO  OOXX====****,,==XX&&$$&&&&&&**",
"******====@@==<<**==,,**  %%&&,,,,==,,==**&&&&,,>>@@++++++++@@OO****&&%%XX====****OO@@@@OOOO  OO  OOXX====****,,==XX&&$$&&&&&&**",
"********====,,==**,,==**  &&**==,,,,==**&&&&**,,++==11<<,,<<++OOooXX**&&XX==,,**OOOO@@OOoo  **OO**OO  ==**==**,,==XX&&%%&&****==",
"********====,,==**,,==**  &&**==,,,,==**&&&&**,,++==11<<,,<<++OOooXX**&&XX==,,**OOOO@@OOoo  **OO**OO  ==**==**,,==XX&&%%&&****==",
"======****==,,****====,,==**==,,====**&&&&**,,@@1111<<,,,,OO,,OOOOoo****XX====****OO@@OO  **==**==OO  ==**==**====oo&&&&========",
"======****==,,****====,,==**==,,====**&&&&**,,@@1111<<,,,,OO,,OOOOoo****XX====****OO@@OO  **==**==OO  ==**==**====oo&&&&========",
"@@,,,,==**====**==****==,,==******&&&&&&==,,@@##,,<<,,@@OOOOXXOOXXXXXX**oo==******OO,,OO  ====****  ****==**&&==**oo**==,,####@@",
"@@,,,,==**====**==****==,,==******&&&&&&==,,@@##,,<<,,@@OOOOXXOOXXXXXX**oo==******OO,,OO  ====****  ****==**&&==**oo**==,,####@@",
"@@@@++,,==********==,,****$$$$&&****====,,@@##@@@@@@@@++XX**==XX**XXXXooOOoo****==OO,,oo  ******====**==**&&&&&&ooOO,,,,####@@@@",
"@@@@++,,==********==,,****$$$$&&****====,,@@##@@@@@@@@++XX**==XX**XXXXooOOoo****==OO,,oo  ******====**==**&&&&&&ooOO,,,,####@@@@",
"++++@@oo==****==,,,,,,==**$$$$++++XX**==,,@@##==,,@@OOOO**==,,**XXXXOO++@@++****====,,XX==********,,==****&&%%$$oo++@@@@####@@@@",
"++++@@oo==****==,,,,,,==**$$$$++++XX**==,,@@##==,,@@OOOO**==,,**XXXXOO++@@++****====,,XX==********,,==****&&%%$$oo++@@@@####@@@@",
"++OOOOoo==,,====,,,,,,==&&$$OO++OOoo**==,,@@##==,,@@OOXX**,,**XXXXooooooOOOOOO======,,XX,,====,,,,==,,==%%$$&&&&++@@####,,,,,,++",
"++OOOOoo==,,====,,,,,,==&&$$OO++OOoo**==,,@@##==,,@@OOXX**,,**XXXXooooooOOOOOO======,,XX,,====,,,,==,,==%%$$&&&&++@@####,,,,,,++",
"****ooXXXX====,,,,,,==**$$&&@@==**oo**==,,@@##@@@@OOXXXX==,,OOooooXXXXOOOOooOOOOXX,,======,,,,====**==$$$$%%**==@@####<<,,======",
"****ooXXXX====,,,,,,==**$$&&@@==**oo**==,,@@##@@@@OOXXXX==,,OOooooXXXXOOOOooOOOOXX,,======,,,,====**==$$$$%%**==@@####<<,,======",
"******oooo==**======**oo@@@@@@**==XXXX==,,@@@@==****====,,,,OOooXXoo****==OOOOooXXXX==,,====,,==**&&%%$$$$%%==,,####<<<<,,**==**",
"******oooo==**======**oo@@@@@@**==XXXX==,,@@@@==****====,,,,OOooXXoo****==OOOOooXXXX==,,====,,==**&&%%$$$$%%==,,####<<<<,,**==**",
",,,,,,OOOO**,,==****ooOOOO++******XX&&==,,,,@@==**==@@@@@@OOXXXXooOOOO,,<<OO==OOooXXXX==****==**&&&&%%%%%%**,,##@@########@@****",
",,,,,,OOOO**,,==****ooOOOO++******XX&&==,,,,@@==**==@@@@@@OOXXXXooOOOO,,<<OO==OOooXXXX==****==**&&&&%%%%%%**,,##@@########@@****",
"**====++++**==**&&&&oo====++====,,==&&**==,,@@,,<<<<<<<<<<OOXX====ooOO,,,,OO==OOOOooXX**&&&&**&&++++++****==,,@@##++++++####@@==",
"**====++++**==**&&&&oo====++====,,==&&**==,,@@,,<<<<<<<<<<OOXX====ooOO,,,,OO==OOOOooXX**&&&&**&&++++++****==,,@@##++++++####@@==",
"**==,,@@++,,**&&&&&&&&**==oo,,,,==**%%&&**,,,,<<<<<<,,,,,,OOXX**<<,,XX**==OO==OOOOooXX**&&&&&&++++++****==,,<<@@++,,1111++@@@@,,",
"**==,,@@++,,**&&&&&&&&**==oo,,,,==**%%&&**,,,,<<<<<<,,,,,,OOXX**<<,,XX**==OO==OOOOooXX**&&&&&&++++++****==,,<<@@++,,1111++@@@@,,",
"==,,==++++==**==******====XXooooooXX%%%%**,,,,<<<<,,,,==++OOXX==,,,,XX****OO**OOOOooXX==**oo&&++++,,,,,,,,,,<<@@,,11,,,,<<<<@@++",
"==,,==++++==**==******====XXooooooXX%%%%**,,,,<<<<,,,,==++OOXX==,,,,XX****OO**OOOOooXX==**oo&&++++,,,,,,,,,,<<@@,,11,,,,<<<<@@++",
"==,,==OOOO,,==,,==**==,,<<<<,,,,==OOXXXX==,,<<,,++@@@@OOXXOO==<<====XX**======OOOOooXX==**&&&&++,,,,,,====,,<<@@,,11====<<<<++++",
"==,,==OOOO,,==,,==**==,,<<<<,,,,==OOXXXX==,,<<,,++@@@@OOXXOO==<<====XX**======OOOOooXX==**&&&&++,,,,,,====,,<<@@,,11====<<<<++++",
"**,,==oooo,,**==****,,1111<<++++++,,oo&&,,,,,,++@@++OOooOO==<<,,==,,**==,,,,,,OOOOooXX==**%%&&oo==,,,,==**,,,,@@,,<<==**,,,,OOOO",
"**,,==oooo,,**==****,,1111<<++++++,,oo&&,,,,,,++@@++OOooOO==<<,,==,,**==,,,,,,OOOOooXX==**%%&&oo==,,,,==**,,,,@@,,<<==**,,,,OOOO",
"**==,,OOOO======**==<<11<<++++++++++==**,,,,,,@@++XX%%ooOOoo<<,,**======,,,,,,OOOOooXX==**%%&&oo======**==,,,,@@,,<<==**==oooooo",
"**==,,OOOO======**==<<11<<++++++++++==**,,,,,,@@++XX%%ooOOoo<<,,**======,,,,,,OOOOooXX==**%%&&oo======**==,,,,@@,,<<==**==oooooo",
"**==,,@@++==,,,,**,,<<<<++++oooo==oo,,**,,,,==@@oo&&****oooo,,==%%**==,,,,==**OOXXooXX==**%%&&oo****==****==,,++==,,==&&==oooooo",
"**==,,@@++==,,,,**,,<<<<++++oooo==oo,,**,,,,==@@oo&&****oooo,,==%%**==,,,,==**OOXXooXX==**%%&&oo****==****==,,++==,,==&&==oooooo",
",,**,,++oo==,,==**,,,,<<==++oooo,,oo==**,,,,**oo%%**==**ooXX==**%%**==,,,,==**OOXX**==**&&&&&&oo&&****&&****==++==,,==**&&&&OOOO",
",,**,,++oo==,,==**,,,,<<==++oooo,,oo==**,,,,**oo%%**==**ooXX==**%%**==,,,,==**OOXX**==**&&&&&&oo&&****&&****==++==,,==**&&&&OOOO",
"****,,oooo====****==,,,,==oooooo==oo****==,,==oo%%====**XXXX&&%%******==,,****OOXX**==**&&****oo&&&&&&&&&&&&**OO**======****++++",
"****,,oooo====****==,,,,==oooooo==oo****==,,==oo%%====**XXXX&&%%******==,,****OOXX**==**&&****oo&&&&&&&&&&&&**OO**======****++++",
"****==oo==****&&&&==,,,,,,oooooo**oo%%&&**====++$$****%%XXXX%%%%==****,,****====XX==,,========oo&&&&&&****&&&&OO$$**========@@@@",
"****==oo==****&&&&==,,,,,,oooooo**oo%%&&**====++$$****%%XXXX%%%%==****,,****====XX==,,========oo&&&&&&****&&&&OO$$**========@@@@",
"****,,==**&&&&&&&&**====,,==oo**&&oo%%%%&&****oo$$==**%%XXXX%%****%%****====**==XX**====,,,,,,oo&&**========**OO&&$$&&****&&@@@@",
"****,,==**&&&&&&&&**====,,==oo**&&oo%%%%&&****oo$$==**%%XXXX%%****%%****====**==XX**====,,,,,,oo&&**========**OO&&$$&&****&&@@@@",
"****==******&&&&&&&&**====**oo**&&&&&&&&%%&&&&XX%%****,,==XX$$%%%%****==,,,,**==**XX**==,,,,==oo**==,,,,,,,,==****%%$$$$$$$$++++",
"****==******&&&&&&&&**====**oo**&&&&&&&&%%&&&&XX%%****,,==XX$$%%%%****==,,,,**==**XX**==,,,,==oo**==,,,,,,,,==****%%$$$$$$$$++++",
"******========**==**&&**==,,,,,,,,==&&**&&&&**XX%%%%%%==**  $$%%%%**==,,,,==******XX**,,==****oooo++++,,,,,,,,====**%%%%$$$$OOoo",
"******========**==**&&**==,,,,,,,,==&&**&&&&**XX%%%%%%==**  $$%%%%**==,,,,==******XX**,,==****oooo++++,,,,,,,,====**%%%%$$$$OOoo",
"****==,,@@@@,,==,,==**==,,,,,,,,,,,,,,**==****  %%%%%%%%%%  $$%%****==,,==****==**&&**&&**,,oo++++@@@@++++,,====,,==**%%%%$$oooo",
"****==,,@@@@,,==,,==**==,,,,,,,,,,,,,,**==****  %%%%%%%%%%  $$%%****==,,==****==**&&**&&**,,oo++++@@@@++++,,====,,==**%%%%$$oooo",
"&&**==@@++++OO====**====,,,,@@@@OOOO====,,==&&  &&%%%%%%%%XX$$**====****&&&&&&**&&%%&&****==,,++@@++OO**OO==,,==,,,,==**%%%%XXXX",
"&&**==@@++++OO====**====,,,,@@@@OOOO====,,==&&  &&%%%%%%%%XX$$**====****&&&&&&**&&%%&&****==,,++@@++OO**OO==,,==,,,,==**%%%%XXXX",
"&&**,,++====OO****==,,,,,,@@@@@@OOOO****==**%%XX&&&&&&&&&&oo&&********==****&&&&%%%%&&**==,,<<@@@@OOoo$$oo==,,,,,,==,,==**&&XX  ",
"&&**,,++====OO****==,,,,,,@@@@@@OOOO****==**%%XX&&&&&&&&&&oo&&********==****&&&&%%%%&&**==,,<<@@@@OOoo$$oo==,,,,,,==,,==**&&XX  ",
"&&**,,OO==,,OO,,==,,,,@@@@@@++++OOoo******&&$$oo**OOOOOOOO++,,,,******======****&&&&&&**==,,<<OO,,oo**$$****==,,==**==**==**  $$",
"&&**,,OO==,,OO,,==,,,,@@@@@@++++OOoo******&&$$oo**OOOOOOOO++,,,,******======****&&&&&&**==,,<<OO,,oo**$$****==,,==**==**==**  $$",
"&&**==OO==**OO====,,,,++,,@@****OOXX**==**&&$$ooOO@@@@++++@@<<<<,,****==,,,,====******==,,@@<<OO,,oo$$$$**==,,,,==****==,,==  $$",
"&&**==OO==**OO====,,,,++,,@@****OOXX**==**&&$$ooOO@@@@++++@@<<<<,,****==,,,,====******==,,@@<<OO,,oo$$$$**==,,,,==****==,,==  $$",
"&&****oo==,,,,==,,,,==OO**,,&&****XX==,,==&&%%OO@@>>##@@++@@,,11<<@@oo==,,,,==,,==**==,,@@@@,,oo==**$$****oo++<<,,======,,==  $$",
"&&****oo==,,,,==,,,,==OO**,,&&****XX==,,==&&%%OO@@>>##@@++@@,,11<<@@oo==,,,,==,,==**==,,@@@@,,oo==**$$****oo++<<,,======,,==  $$",
"%%&&**oo==,,,,==,,,,==**,,**&&==,,<<XX,,==&&&&++>>####@@@@@@==<<,,++@@oo,,==,,====**==@@@@@@,,oo==****oooo++@@##,,==,,======****",
"%%&&**oo==,,,,==,,,,==**,,**&&==,,<<XX,,==&&&&++>>####@@@@@@==<<,,++@@oo,,==,,====**==@@@@@@,,oo==****oooo++@@##,,==,,======****",
"&&%%&&XX======**==,,==****&&====<<==XX==******@@##@@@@++@@@@@@,,<<,,++++==,,==,,====@@@@@@@@@@@@**oooo++++@@##++====,,====,,==XX",
"&&%%&&XX======**==,,==****&&====<<==XX==******@@##@@@@++@@@@@@,,<<,,++++==,,==,,====@@@@@@@@@@@@**oooo++++@@##++====,,====,,==XX",
"&&%%&&XX&&********==******==**====XX==,,==**@@@@++OO@@OO++@@@@@@,,<<,,++oo========,,@@@@++++++++@@,,,,######++oo****======,,==XX",
"&&%%&&XX&&********==******==**====XX==,,==**@@@@++OO@@OO++@@@@@@,,<<,,++oo========,,@@@@++++++++@@,,,,######++oo****======,,==XX",
"%%$$%%  %%&&&&&&****====&&**&&%%$$XX**==****,,@@OO++++ooOO++++++==,,,,++oo&&****==@@@@++++%%&&&&**====++oo**++oo**==,,,,==,,==XX",
"%%$$%%  %%&&&&&&****====&&**&&%%$$XX**==****,,@@OO++++ooOO++++++==,,,,++oo&&****==@@@@++++%%&&&&**====++oo**++oo**==,,,,==,,==XX",
"$$$$$$  %%$$%%%%&&&&******====%%%%XX&&**oo@@@@@@@@++oo++OOOOoooo++@@,,++oo%%&&****@@++==OO&&****==,,,,++oo==++oo==,,,,==**==****",
"$$$$$$  %%$$%%%%&&&&******====%%%%XX&&**oo@@@@@@@@++oo++OOOOoooo++@@,,++oo%%&&****@@++==OO&&****==,,,,++oo==++oo==,,,,==**==****",
"%%$$$$$$$$%%&&&&**************&&&&XX  oo@@OOOOoo++oo++++oooooooooo++++++++oo%%&&**OO,,==oo**oo++++ooXX++,,,,==oo,,,,OO++oo****XX",
"%%$$$$$$$$%%&&&&**************&&&&XX  oo@@OOOOoo++oo++++oooooooooo++++++++oo%%&&**OO,,==oo**oo++++ooXX++,,,,==oo,,,,OO++oo****XX",
"&&$$$$  %%&&****====,,,,,,,,,,==**XXoo@@OOOOXX  oooo++oooo%%****====OOOO++++ooXX**oo==,,oo==++OOOOooXX++,,====oo==OO++++++oo**XX",
"&&$$$$  %%&&****====,,,,,,,,,,==**XXoo@@OOOOXX  oooo++oooo%%****====OOOO++++ooXX**oo==,,oo==++OOOOooXX++,,====oo==OO++++++oo**XX",
"%%$$%%%%&&**==,,,,,,@@@@@@@@@@,,==**oo++OOXX%%  XX%%ooooXX**,,====**ooooooooOOoo%%XX**==oo,,==oo%%ooXX++==****XX,,====OOOOoo&&&&",
"%%$$%%%%&&**==,,,,,,@@@@@@@@@@,,==**oo++OOXX%%  XX%%ooooXX**,,====**ooooooooOOoo%%XX**==oo,,==oo%%ooXX++==****XX,,====OOOOoo&&&&",
"%%%%%%%%&&==,,<<<<++@@OOOOOOOO@@,,**oo++XX%%%%  XX%%ooooXX==,,,,,,,,XXXX    OOoo&&XX%%**XX,,==oo%%XXXX****==**XX==**==oooooo&&&&",
"%%%%%%%%&&==,,<<<<++@@OOOOOOOO@@,,**oo++XX%%%%  XX%%ooooXX==,,,,,,,,XXXX    OOoo&&XX%%**XX,,==oo%%XXXX****==**XX==**==oooooo&&&&",
"%%%%%%%%**==,,<<<<@@**======OOOO==**oo++XX%%%%%%XX%%%%**XX**==,,,,,,  XX  %%ooXX****&&%%XX====XX%%oooo****,,**XX******oooooo&&&&",
"%%%%%%%%**==,,<<<<@@**======OOOO==**oo++XX%%%%%%XX%%%%**XX**==,,,,,,  XX  %%ooXX****&&%%XX====XX%%oooo****,,**XX******oooooo&&&&",
"&&%%%%&&**==,,<<**OO==,,==,,==OO==**  ,,,,****,,XX**,,**XX**==,,====    %%&&XX  &&**&&%%XX&&&&XX&&OOOOXX******XX**==****++OOOO**",
"&&%%%%&&**==,,<<**OO==,,==,,==OO==**  ,,,,****,,XX**,,**XX**==,,====    %%&&XX  &&**&&%%XX&&&&XX&&OOOOXX******XX**==****++OOOO**",
"&&%%%%&&**==,,OOOOXXOOOO,,==,,oo====  **,,,,****XX******XX==**==**%%%%  &&==XX  %%==%%&&XX**&&&&**++==++XX****XX==****++>>@@@@OO",
"&&%%%%&&**==,,OOOOXXOOOO,,==,,oo====  **,,,,****XX******XX==**==**%%%%  &&==XX  %%==%%&&XX**&&&&**++==++XX****XX==****++>>@@@@OO",
"&&%%%%&&OO@@@@@@==,,==========oo==,,  **********XXXXXXXXXX====******%%  ==**XX  %%&&&&**XX====**,,OO,,==XXXX**XX****++>>@@++++,,",
"&&%%%%&&OO@@@@@@==,,==========oo==,,  **********XXXXXXXXXX====******%%  ==**XX  %%&&&&**XX====**,,OO,,==XXXX**XX****++>>@@++++,,",
"XX&&&&==@@@@++++@@====,,,,XXXXXXXXXXXX****,,**XXooooooooooooXXXXXXXXXX  XX**XX  %%==**==,,,,,,==**XXXXXXXXXXXXXXXXXX@@>>++==XXXX",
"XX&&&&==@@@@++++@@====,,,,XXXXXXXXXXXX****,,**XXooooooooooooXXXXXXXXXX  XX**XX  %%==**==,,,,,,==**XXXXXXXXXXXXXXXXXX@@>>++==XXXX",
"XXXXXX,,@@&&==,,OO,,**==XXooooooooooooooooXXXXXX++,,++++++++OOOOOOooooooXXXXXX  ==,,====,,,,,,ooooooOOOOOOOO++++++@@>>++oo,,==XX",
"XXXXXX,,@@&&==,,OO,,**==XXooooooooooooooooXXXXXX++,,++++++++OOOOOOooooooXXXXXX  ==,,====,,,,,,ooooooOOOOOOOO++++++@@>>++oo,,==XX",
"XXXXXXXX++==,,**ooXXXXXXoo++++@@@@++++++oooooooooo++@@##>>##@@@@++++++++++OOOOooooooooXXXXXXXXooooooOO++@@@@@@@@@@@@++ooXXXXXXXX",
"XXXXXXXX++==,,**ooXXXXXXoo++++@@@@++++++oooooooooo++@@##>>##@@@@++++++++++OOOOooooooooXXXXXXXXooooooOO++@@@@@@@@@@@@++ooXXXXXXXX",
"::--..XXXXXXXXXXXXXXXXXXXXXXXXXXXXXX..--::::;;..XXXXXXXXXXXXXXXXXXXXXXXXXXXXXXXXXXXXXX..--;;;;--..XXXXXXXXXXXXXXXXXXXXXXXX..--::",
"::--..XXXXXXXXXXXXXXXXXXXXXXXXXXXXXX..--::::;;..XXXXXXXXXXXXXXXXXXXXXXXXXXXXXXXXXXXXXX..--;;;;--..XXXXXXXXXXXXXXXXXXXXXXXX..--::"
};
