/* XPM */
static char *t1[] = {
/* columns rows colors chars-per-pixel */
"128 128 18 1 ",
"  c #1E1E1E",
". c gray23",
"X c gray28",
"o c gray31",
"O c gray34",
"+ c #606060",
"@ c gray42",
"# c gray45",
"$ c #7B7B7B",
"% c #838383",
"& c gray56",
"* c #9B9B9B",
"= c gray67",
"- c #B7B7B7",
"; c gray78",
": c LightGray",
"> c #DFDFDF",
", c #EFEFEF",
/* pixels */
"  ..  ..  ..  ..  ..  ..  ..  ..  ..  ..  ..  ..  ..  ..  ..  ..  ..  ..  ..  ..  ..  ..  ..  ..  ..  ..  ..  ..  ..  ..  ..  ..",
"  ..  ..  ..  ..  ..  ..  ..  ..  ..  ..  ..  ..  ..  ..  ..  ..  ..  ..  ..  ..  ..  ..  ..  ..  ..  ..  ..  ..  ..  ..  ..  ..",
"OOOoOOooOOooOOooOOoooX::>>>>>>::>>::>>>>>>::>>::>>>>>>  ..%%==--::;;::::;;::--;;==%%OO  XXXXXXXXXXXXXXXXXXXXOOooOOooOOooOOooOOoo",
"OOoOOOooOOooOOooOOooXo::>>>>>>::>>::>>>>>>::>>::>>>>>>  ..%%==--::;;::::;;::--;;==%%OO  XXXXXXXXXXXXXXXXXXXoooooOOooOOooOOooOOoo",
"ooOOOOooOOOoooOoOOOoXX>>::;;::--::::::;;::::--::::;;&&  ..%%;;--&&==%%&&&&&&&&%%==oo..  ..@@&&&&%%&&&&&&$$@@@@XXXXXXXXXXXXXXoXXX",
"OOOOoooOOOoOOOoOOOooXX>>::;;::--::::::;;::::--::::;;&&  ..%%;;--&&==%%&&&&&&&&%%==oo..  ..@@&&&&%%&&&&&&$$@@++XXXXXXXoXXXXXXXoXX",
"&&&&%%&&&&&&$%&&  OOoX>>;;;;--::--;;;;--;;;;----::&&++  ..==::==&&==&&==%%==&&==%%OO..  ..&&::>>>>>>::>>----==&&$%*&&&&&%%&&&&&&",
"&&&&%%&&&&&&%%&&  ooXo>>;;;;--::--;;;;--;;;;----::&*+O  ..==::==&&==&&==%%==&&==%%OO..  ..&&::>>>>>>::>>----==&&%%&&&&&&%%&&&&&&",
"::::::::--==&&%%  OOXX>>::====**==&&========**====#$oO  ..&&--&&&&%%========%%&&##oo..  ..%%>>>>--;;--::>>>>>>::>>::;;::::::;;::",
"::::::::--==&&%%  OOXX>>::====**==&&========**====$$oO  ..&&--&&&&%%========%%&&#@oo..  ..%%>>>>--;;--::>>>>>>::>>::;;::::::;;::",
"========**==$$##  oOXX,,--**========**==&&==%%====@@Oo  ..XX==&&====%%&&**&&==@@OOoO..  ..&&::--==&&==&&====**&&&&==&&==%%==&&**",
"========**==$$##  oOXX,,--**========**==&&==%%====@@oO  ..XX==&&====%%&&**&&==@@OOOo..  ..&&::--==&&==&&====**&&&&==&&==%%==&&**",
"--******==&&$$@@  XoXX,,::==%%==&&==&&******&&&&==&&oo  ..XX#$&&%%==&&====%%==##......  ..%%>>--&&==%%**%%&&&&==%%&&**&&==**&&**",
"--******==&&$$@@  oXXX,,::==%%==&&==&&******&&&&==&&oo  ..XX$$&&%%==&&====%%==##......  ..%%>>--&&==%%**%%&&&&==%%&&**&&==**&&**",
"--==$%--%%**++OO  ..XX,,;;&&**&&====**&&$$&&&&==&&++OO  ..XXXX&&====**&&&&&&==@@......  ..&&>>====%%**$$==**$$&&==%%====&&$$==**",
"--==%%--%%**++OO  ..XX,,;;&&**&&====**&&$$&&&&==&&++OO  ..XXXX&&====**&&&&&&==@@......  ..&&>>====%%**$$==**$$&&==%%====&&$$==**",
"**====&&**##XXoX    oX;;--==**==%%==&&**%%**&&&&==@@OO    XooOXX$$................    ....##>>>>&&==%%%%**##**&&==&&&&#$====##&&",
"**====&&**#@XXXo    Xo;;--==**==%%==&&**%%**&&&&==@@oO    ooooXX$$................    ....##>>>>&&==%%%%**##**&&==&&&&$$====##&&",
"&&&&%%&&##oOXXXX  ..XX==,,==**==&&&&&&&&&&&&%%==%%OO$$    ..XX..............  ..      XXXXXX;;;;&&&&&&&&******%%&&==&&====%%==&&",
"&&&&%%&&##oOXXXX  ..XX==,,==**==&&&&&&&&&&&&%%==%%OO$$    ..XX..............  ..      XXXXXX;;;;&&&&&&&*******%%&&==&*====%%==&&",
"##@@####oooo....    Xo&&::&&==&&&&$$&&&&==%%==&&==@@OO..  ..XX..              ..  ..  ooOoXX;;==&&==%%==&&%%&&##@@@@O+++@++++@++",
"##@@#@##oooX....    oX&&::&&==&&&&$$&&&&==%%==&&==@@OO..  ..XX..              ..  ..  oXooXX;;==&&==%%==&&%%&&##@@+++++O@@+O@+++",
"OoOOXXXXXX        ...X##>>==%%**$$$$$$==**&&%%$$&&@@@+..  ..XXXXXoXo##$$&&==**====**##..ooXo--&&@@##@++++@OOOooOOOXXooXXooXXXXoo",
"oOOOXXXXXX        ....##>>==%%**$$$$$$==**&&%%$$&&@@++..  ..XXXXoXoo##$$&&==**====**#@..oooX--&*@@##+@++@+OOooOoooXXooXXoXXXXXXo",
"          ..  ..  ..OoXX>>;;&&&&&&****%%&&==$$&&==&&oo..  ....##====::>>,,::::::**@@oO  ooXX&&+@+@++OooXXXXX..........  ..  ..  ",
"          ..  ..  ..ooXX>>;;&&&&&&****%%&&==$$&&==&&oo..  ..X.##====::>>,,::::::**@@oO  oOXX&&@@@+++OoXoXXXX..........  ..  ..  ",
"  ..  ..    ..  ....ooXX==::&&==%%$$&&==&&%%**&&%%##oo..    ..==-->>::--%%==&&==%%##..  ......................                  ",
"  ..  ..    ..  ....ooXX==::&&==%%$$&&==&&%%**&&%%##oo..    ..==-->>::--%%==&&==%%##..  ......................                  ",
"....................XoXo&&;;==%%==**%%$$&&$$&&==&&ooOO..  ..X.==>>--==&&&&&&%%&&&&oo..  ..    ..    ..    ..  ..................",
"....................oXoX&&;;==%%==**%%$$&&$$&&==&&ooOO..  ....==>>--==&&&&&&%%&&&&oo..  ..    ..    ..    ..  X..X..............",
"OooX............  ..oOXX##;;%%==**&&==**==%%==%%==oo##XX    oo==,,==&&$%==&&==%%==Oo..  ..XXOOOOOOOO  XXoXXXXXXoXXXXXXXXXXXXXX..",
"OoXo............  ..oOXX##;;%%==**&&==**==%%==%%==oo##XX    oX==,,==&&%%==&&==%%==oO..  ..XXOOooOOOO  XXXoXXXXooXXXXXXXXXXXXXXX.",
"****&&**&&**&&****    OOXX;;--**&&%%****##&&&&&&&&@@OOOo    oX==,,%%&&====%%==&&&&oo..  ..@@==>>::OOXXOo$$****&&******&&********",
"****&&**&&**&&****    OOXX;;--**&&%%****##&&&&&&&&@@OOoo    Xo==,,%%&&====%%==&&&&oo..  ..@@==>>::OOXXOo$$****&&******&&********",
"::;;::::;;::--==##X.  OOXX&&--&&==&&$$&&&&%%==&&@@&&@@oo    oX==;;====&&%%==&&==%%OO..  ..==::;;==  XX#$;;::>>>>>>::>>>>>>::>>::",
"::;;::::;;::--==##..  OOXX&&--&&==&&$$&&&&%%==&&@@&&@@oX    Xo==;;====&&%%==&&==%%OO..  ..==::;;==  Xo$$;;::>>>>>>::>>>>>>::>>::",
"==**&&==&&====+@##..  OoXX##**==%%====%%==##&&@@oo##oOoX    oX==;;==&&@@####@@OoOOOo..  ..::;;==%%  Xo**::::----==------==------",
"==**&&==&&====@@##..  oOXX##**==%%====%%==#@&&@@Oo##ooXo    Xo==;;==&&@@####@+oOOOoO..  ..::;;==%$  oX**::::----==------==------",
"==&&**&&==%%&&@@##..  XXOoXX**&&####@@##OooO##oo##OoXX      ..**&&##&&@@..............  ++>>==&&*&  XX**>>====**==&&==&&**%%****",
"==&&**&&==%$&*@@##..  XXoOXX**&&####@@##oOoO##oo##oOXX      ..**&&##&&@@..............  ++>>==&&&&  XX**>>====**==&&==&&**%%****",
"==&&&&==%%====@@OO..  XXOoXX+@OoOOoOOOXXXXXX..                &&##......                ++>>====$%  oX**::==&&**%%**&&**##%%&&%%",
"==&&&&==%%====@@OO..  XXoOXX@+ooOOooOOXXXXXX..                &&##......                ++>>====%%  Xo**::==&&**%%**&&**##%%&&%%",
"==&&==&&==%%&&##oo..  XXOoXX  ..  ..                        ....oo..          ..    ..  &&>>====&&  XX&&;;%%==**==&&==&&**%%****",
"==&&==&*==%%&&##oo..  XXOoXX  ..  ..                        ....oo..          ..    ..  &&>>====&&  XX&&;;%%==**==&&==&&**%%****",
"&&==##$$&&&&==@@OO..  ..ooOOXo..                oooXoXoooXoXXX&&&&&&====&&&&&&$$OO  ..+@-->>==%%$$  oX%%;;==%%**&&**%%**$$$$&&&&",
"&&==##$$&&&*==@@OO..  ..ooOOoo..                oOXoXoooXoXoXX&&&&&&====&&&&&*$$OO  .X+@-->>==%%$$  Xo%%;;==%%**&&**%%**$$$$&&&&",
"&&$%%%$$&&==%%+@XX..  ..%%>>>>>>::;;====*&++..oX+@$$====--;;;;>>>>>>::>>>>>>;;**@@  ..$$>>;;**==##  XX%%--==**&&==%%==&&$$$$&&&&",
"&&%%%%$#&&==%%+@XX..  ..%$>>>>>>::;;====&&+O..Xo@+$$====--;;;;>>>>>>::>>>>>>;;**@+  ..$$>>;;**==##  XX%%--==**&&==%%==&&$$$$&&&&",
"&&&&====%%*&&&++oo..  ..::;;==&&****==&&**..oooX$$::,,>>>>;;----;;--;;--;;--;;@@OO  ..&&>>==**&&@@  oX@@;;%%==&&&&**&&%%==&&==&&",
"&&&&====%%&&&&+OXo..  ..::;;==&&****==&&**..ooXo$$::,,>>>>;;----;;--;;--;;--;;@@OO  ..&&>>==**&&@@  Xo@@;;%%==&&&&**&&%%==&&==&&",
"**==%%&&==%%@#OO....  ..>>**&&**====&&**==  OooX**>>;;&&==%%==**%%==**==**&&%%+@XX  ..&&,,==%%==OO  oXXX&&##O+OOoOOo@@+@@@$$&&%%",
"**==%%&&==%$##oo....  ..>>**&&**====&&**==  oOXo**>>;;&&==%%==**%%==**==**&&%%@+XX  ..&&,,==%%==OO  XoXX&&##++OOooOo+@@+@@$$&&%%",
"@++++@++@+OOXX......  ..::======%%==&&==++  XoXX**,,==**==&&$$====&&%%&&==%%==OOXX  ..%%,,====&&OO  Oo  ....XXXXXXXXoXXXXXoOOOOo",
"@@+O@+++@+OoXX......  ..::======%%==&&==++  oXXX**,,==**==&&$$====&&%%&&==%%==OOXX  ..%%,,====&&OO  oO  ....XXXXXXXXXoXXXXooOOoO",
"OooXXX......          ..>>%%==&&====&&$$++  XoXX**,,%%==&&**==%%&&$$&&==&&&&&&OoXo  ..&&,,$%==&&oo  OO..                  ....XX",
"oOXoXo......          ..>>%%==&&====&&$$+O  oXXX**,,%%==&&**==%%&&$$&&==&&&&&&oooo  ..&&,,%%==&&oo  OO..                  ....XX",
"              ..  oXXoXX>>==**%%==&&==$$O+  ..XX**,,&&&&==%%&&$$&&$$&&%%&&==&&ooXo  ..%%,,====%%OO  OO..............  ..        ",
"              ..  XoooXX>>==**%%==&&==$$++  ..XX**,,&&&&==%%&&$$&&$$&&%%&&==&&oooo  ..%$,,====%$OO  OO..............  ..        ",
"XX+@@@@@&&**&&%%&&&&XX  >>==##**&&==%%%%+@..  XX&&,,==&&%%&&$$&&$$&&==$$&&%%==oOXX  ..&&,,&&====oo  OOXX..XXOooOooOOoOOoOO......",
"Xo@++@@+&&**&&%%&&&&XX  >>==##**&&==%%%%@@..  XX&&,,==&&%%&&$$&&$$&&==$$&&%%==ooXX  ..&&,,&&====oo  OOXXX.XXooOoooOOooooOO......",
"++&&-->>::>>::::;;==##  >>====%%$$&&==%%@+..  XX&&>>--**&&==&&==##$$&&$$&&==%%OO..  ..&&::&&&&==oo  oX==>>::--&&O+OOXXXXXoXXXXOo",
"@@&*-->>::>>::::;;==##  >>====%$$$&&==%%+@..  XX&&>>--**&&==&&==##$$&&$$&&==%%OO..  ..&&::&&&&==oo  Xo==>>::--&&++OOXXXXooXXXXoO",
"++==::;;;;--====**==..  ,,&&**==$$&&==**@@oX  oo$$::;;==%%&&##&&$$$$==&&==%%%%oo..  ..&&>>==&&&&Oo  oX>>%%&&-->>>>::>>>>>>&&..oO",
"@@==::;;;;--====**==.X  ,,&&**==$$&&==**@@XX  oX$$::;;==%%&&##&&$$$$==&&==%%%%oo..  ..&&>>==&&&&Oo  Xo>>%$&&-->>>,::>>>>>>&&..oo",
"@@>>--====%%==&&==%%##  ,,**==&&====%%==@@oX  ..oo;;>>====**&&==%%==$$$$&&==@@OO..  ..&&::&&==&&oo  oo>>&&%%====%%&&==&&%%%%..Oo",
"++>>--====%%==&&==%%##  ,,**==&&====%%==@@Xo  ..oo;;>>====**&&==%%==$$$$&&==@@OO..  .X&&::&&==&&oo  oX>>&&%%====%%&&==&&%%%%..oo",
"@+::--**%%==&&==%%==##  ,,**%%**==&&==%%+@Oo    OO==,,====**&&&&$$&&$$$$==%%##XX..  oo&&::====%%OO  XX>>====%%&&====%%==&&O+..XX",
"@@::--**%%==&&==%%==##  ,,**%%**==&&==%%@+OO    OO==,,====**&&&*$$&&$$$$==%%##XX..  oX&&::====%$OO  XX>>====%%&&====%%==&&++..XX",
"++,>==&&==&&====$$==oo  >>======&&&&&&==@+Oo  ..oo&&,,--==&&==%%&&**%%==&&==O+oX  ...X&&::**&&==oo  Xo;;==&&====%%&&==&&==++..XX",
"@@>>==&&==&&====$$==oo  >>======&&&&&*==+@oo  ..oo&&,,--==&&==%%&&**%%==&&==++XX  ....&&::**&&==oo  oX;;==&&====%%&&==&&==+O..XX",
"@+>>====&&&&****==%%OO  >>--$$**$$====**++OO    Xo+@::--==&&$$**%%&&**&&&&&&++..    oo&&::&&==ooOO  Xo;;==**==&&==%%&&==**OO..XX",
"++>>====&&&&****==%%OO  >>--$$**$$====**+OOO    oo@@::--==&&$#**%%&&**&&&&&*+O..    Xo&&::&&==ooOO  oX;;==**==&&==%%&&==**OO..XX",
"@@::--&&====&&==%%==Oo  ;;>>%%**==&&&&&&++OO    XoOo-->>==$%==&&==&&==%%&&+@Oo..  ..XX$$==$$oo........====*&==**&&==&&%%==OO....",
"@+::--&&====&&==%%==oO  ;;>>%%**==&&&&&&+OOO    oXoo-->>==%%==&*==&&==%$&&@+Oo..  ..XX$$==$#oo......X.====&&==**&&==&&%%==OO....",
"@+,>--==**&&==&&==&&oo  -->>$$==%%&&&&==@@OO    ..oo&&--==&&$$++O+OoXXXo........  ....OO..........XX  ##ooXXOoOOoOOOOoooOOOO....",
"+@>>--==**&&==&&==&&oo  -->>$$==%%&&&&==@@OO    ..oo&&--==&*$$@@++oOXXoo........  ...XOO........X.XX  #@ooXXooOOooOOOoOoOOOo....",
"@+>>==&&====%%==$$==oo  **::**$$====%%&&@@OO    ..ooXX&&&&O+OOXX..                ..XXooXXXXoooOOOoOOO                        ..",
"@+>>==&&====%%==$$==Oo  **::**$$====%%&&@@OO    ..OOXX&&&&++OOXX..                ..XXooXXXXooOoOOOoOO                        ..",
"+@::--&&%%**==&&==%%OO  $$>>==**==%%&&==@@oo      ooXX..  ..        ..  ..    ..  ..XXOoOOXXXXoXXXXXXXXoXXXX....................",
"@+::--&&%%**==&&==%%OO  $$>>==**==%%&&==++oo      ooXX..  ..        ..  ..    ..  ..XXoOOOXXXXXoXXXXXXoXXXXX....................",
"@@>>--====%%**==&&==Oo  OO,,&&**&&&&==%%+@oo    ..oXXXXX..........oXXXoXX.ooooXXooXXXXOOOo$$$$$$$$$$$$$$$$$$$$$$$$$$$$$$$$##..oo",
"+@>>--====%$**==&&==oO  OO,,&&**&&&&==%%@+OO    ..XXXXXo..........ooXXXo..oooXXXoXXXXXOOoO$$$$$$$$$$$$$$$$$$$$$$$$$$$$$$$$##..oo",
"@@>>==&&&&==%%==&&@@OO  XX,,==&&%%$$&&==@@OO      .X+@$$$$$$$$$$$$$$$$$$$$$$#$$$&&&&&&**==--==;;--;;--;;----;;--;;--;;--;;$$..oo",
"++>>==&&&&==%%==&&@@OO  XX,,==&&%%$$&&==@@OO      ..@+$$$$$$$$$$$$$$$$$$$$$$$$$$&&&&&&**==--==;;--;;--;;----;;--;;--;;--;;$$..oo",
"@+;;--====&&==*&==oo    oo,,**&&==&&&&%%@@OO..    ..$$;;--;;--;;--;;;;--;;--;;--;;--::>>>>,,,,,,,,,,,,,,,,,,,,,,::>>::::&&+@  oX",
"@@;:--====&&==&&==oo    oo,,**&&==&&&&%%++OO..    ..$$;;--;;--;;--;;;;--;;--;;--;;--::>>>>,,,,,,,,,,,,,,,,,,,,,,::>>::::&*@+  Xo",
"++::--&&==&&====%%OO  ....,,&&==$$**%%==@+oo..      $$;;;;,,,,,,,,,,>>>>,,,,>>,,,,,,,,,,>>>>::::------;;--==--;;----;;--#$OO  oo",
"@@::--&&==&&====%%OO  ...X,,&&==$$**%%==@@oo..      $$;;;;,,,,,,,,,,>>>>,,,,>>,,,,,,,,,,>>>>::::------;;--==--;;----;;--$$OO  oo",
"+@----==&&==%%&&&&oo  ..XX>>====%%==&&&&O+OO..      $$;;;;--;;--;;--;;==--;;==--;;----====****&&&&==&&==%%&&&&==%%==&&==@@OO....",
"@+----==&&==%%&&&&oo  ..XX>>====%%==&&&&++OO..      $$;;;;--;;--;;--;;==--;;==--;;----====****&&&&==&&==%%&&&&==%$==&&==@@OO....",
"oo;;$%&&==$%##@@##oO  ..XX::%%&&==%%==&&@@OO..      +@-->>--&&&&%%&&&&&&==%%====&&&&**======&&$$**%%====**%%==&&====**&&@@Oo  ..",
"Xo;;%%&*==%%##@@##oo  ..XX::%%&&==%%==&&@@OO..      @+-->>--&&&&%%&&&&&&==%%====&&&&**======&&$$**%%====**%%==&&====**&&@@oO  ..",
"XX--====**&&OOOoOo    .XXX--==%%&&==&&%%##oo..      XX;;>>--&&&&&&==&&**&&**==%%&&**====%%**&&**&&&&$$%%****&&==%%==&&==@@OO....",
"XX--====**&&OOOooO    ..XX--==%%&&==&&%%#@OO..      XX;;>>--&&&&&&==&&**&&**==%%&&**====%%**&&**&&&&$$%%****&&==%%==&&==@+OO....",
"XX$$$$$$OOoOOOoOoo  ....X.****==%%&&&&@@+@Oo..        -->>::====%%&&&&&&$$&&%%==&&**$%==**$$%%&&==%%&&==&&$$##&&$$**&&&&##oO  ..",
"XX$$$$$#OOoOOOooOO  ......****==%%&&&*@@+@OO..        -->>::====%%&&&&&&$$&&%%==&&**%%==**$$%%&&==%%&&==&&$$##&&$$**&&&*##Oo  ..",
"XX..      OOoOOoOO  ..XXXo$$@++++@+++++@OoOo..      ..==::::&&%%==&&==%%&&==&&$$$$****%%==&&==&&&&==%%&&$$&&&&%%==&&##%%@@OO  ..",
"XX..      OOOoooOO  ....oX$#+@++@+@@++@@OoOo..      ..==::::&&%%==&&==%%&&==&&$$$$****%%==&&==&&&&==%%&&$$&&&&%%==&&##%%@@OO  ..",
"oOOOOoXX..        .....X......................        &&::--==&&&&==%%==$$&&%%**$$**&&**$$==%%&&$$&&&&&&%%==&&$$&&&&%%$$@@OO  ..",
"OoOOooXX..        ............................        &&::--==&&&&==%%==$$&&%%**$$**&&**$$==%%&&$$&&&&&&%%==&&$$&&&&%%$$@@OO  ..",
"XXoXXXXXXXoXXX..    ..oX....                        ..$%**@@####@@####@@==&&====%%&&$$%%&&&&$$&&&&==%%==&&&&==%%&&&&&&**@@OO  ..",
"XXXoXXXXXXXoXX..    ..Xo....                        ..%%**@@####@@####@@==&&====%%&&$$%%&&&&$$&&&&==%%==&&&&==%%&&&&&&**@@OO  ..",
"XX$$========&&&&+@ooXooo....    ..    ..    ..  ..  ..OOXX....  ..  ..  OO##@@$$&&$$$$$$$$$$$$$$$$$$$$$$$$$$$$$$$$$$$$$$+@oo  ..",
"XX$$========&&&&@+oXoXOo....    ..    ..    ..  ..  ..ooXX....  ..  ..  OO##@@$#&&$$$$$$$$$$$$$#$$$$$$$$$$$$$$$$$$$$$$$$@+oo  ..",
"XX==;;::>>::>>>>--====&&@@++OOoo......................OOoXXX............  XooooOOOOoOOOoOOooOOoOOooOOOOoOOoOOoOOOoOOooOoOo  ....",
"XX==;;::>>::>>>>--====&&@@++OOoo....................X.OOXXXX............  oXoOoOOOoOOOOoOOoOOOoOoOooOOoOOOoooOOOooOOOOoOoO  ....",
"XX==::====&&--::>>>>>>--==============**&&&&%%$$$$@@@@+@ooOOXXXXXX..XX....  ..  ..  ..  ..  ..  ..                          ....",
"XX==::====&&--::>>>>>>--==============**&&&&%%$$$$@@+@@+ooOOXXXXXXX.Xo....  ..  ..  ..  ..  ..  ..                          ...X",
"XX==>>======--==&&==-->>>>>>::>>::>>::>>>>>>>>;;::;;--==========%%XoOOXX..................    ..  ..  ..  ..  ..  ..  ......XXoo",
"XX==>>======--==&&==-->>>>>>::>>::>>::>>>>>>>>;;::;;--==========%$oXooXX..................    ..  ..  ..  ..  ..  ..  ......XXoX",
"XX==>>==%%==$$$$==**&&$$==%%==&&==&&====%%==&&======;;::>>::::--%%..XXooXoXXXX......  ....................................XXoXoo",
"XX==>>==%%==$$$$==**&&$$==%$==&&==&&====%%==&&======;;::>>::::--%%..XXoooXXXXX......  ...................................XXXXooO",
"XX==;;======&&==&&&&&&**==%%&&==$$##*&==$$&&%%&&==%%==&&======$$++  ..oooo==::>>**#$ooXoXXooOoOOXXXXX.XXXXXX.XXXXX..XXXXooOOooOo",
"XX==;:======&&==&&&&&***==%%&&==$$##&&==$$&&%%&&==%%==&*======$$@@  ..oooX==::>>**$$oXoXXXoOooooXXXX..XXXXXX..XXXX.XXXXXooOOoOOo",
"XX==;;==%%==$$$$**==%%====**%%$$==$$&&#$**%%==&&==&&==%%====**@+OO  ..XXXX>>====>>>>>>::--oOoOoX-->>>>::>>>>,>::::;;==**$$ooXXoo",
"XX==;;==%%==$$$$**==%%====**%%$$==$$&&$$**%%==&*==&&==%%====**@+oO  ..XXXX>>====>>>,>>::--oooOXo-->>>>::>>>>>>::::;;==**$$oXXXoO",
"XX==%%+@O+@@++@@O++@@++++@+++@@+++@@++@+O++@@++++@++@+++@@+++@OOoO..  ..XX::--==--==------++OO$$>>**====&&==%%==**==&&==::**  Oo",
"XX==%%@+++@++O+@++@@@@+O@@++@++@++@++++@++@@@@+O@++++@++@+++@+OOoo..  ..XX::--==--==------++OO$$>>**====&&==%%==**==&&==::**  Oo",
"XX&&@@..............................................................    Xo--==----**O+**%%++oX--==&&==%%======%%==&&==%%==Oo  OO",
"XX&&+@..............................................................    oX--==----**++**%%@@XX--==&&==%$======%$==&&==%%==oo  OO",
"XX..                                                                    oo..XX..oo+@++@@+@++oX>>******====&&**==****==&&&&oo  OO",
"XX..                                                                    oo..XX..oo@++++@@@+OXo>>******====&&**==****==&&&&oo  OO",
"oooX......  ..    ..    ..    ..  ..    ..    ..    ..    ..    ..  ..  .XooOO....          ..OoOOOoOoOooOOoOOooOoOOooOOooOO  Oo",
"oOXo......  ..    ..    ..    ..  ..    ..    ..    ..    ..    ..  ..  ..ooOO....          ..ooOOoOooOooOooOOooOoOOoOOOooOO  Oo",
"OoOOoooOXXXXXXoXoXXXoXoX..................................................ooOOooOo............oooo                            OO",
"ooOOooOoXXXXXXXoXoXXooXo..................................................ooOOoooO............ooOO                            OO",
"................................................................................................................................",
"................................................................................................................................"
};
